<mxfile host="app.diagrams.net" modified="2021-03-09T07:38:58.598Z" agent="5.0 (Macintosh; Intel Mac OS X 10_15_6) AppleWebKit/537.36 (KHTML, like Gecko) Chrome/88.0.4324.192 Safari/537.36" etag="FWyIX5A9-dS3I5cbBLhK" version="14.3.2" type="github">
  <diagram id="D94FOL5NX0z80F2q1Gf7" name="第 1 页">
    <mxGraphModel dx="2033" dy="1131" grid="1" gridSize="10" guides="1" tooltips="1" connect="1" arrows="1" fold="1" page="1" pageScale="1" pageWidth="827" pageHeight="1169" math="0" shadow="0">
      <root>
        <mxCell id="0" />
        <mxCell id="1" parent="0" />
        <mxCell id="CKGqQik_71pQvi-KBsD8-1" value="Consumer2-&amp;gt;Leader" style="shape=umlLifeline;perimeter=lifelinePerimeter;whiteSpace=wrap;html=1;container=1;collapsible=0;recursiveResize=0;outlineConnect=0;" vertex="1" parent="1">
          <mxGeometry x="240" y="40" width="120" height="680" as="geometry" />
        </mxCell>
        <mxCell id="CKGqQik_71pQvi-KBsD8-10" value="" style="rounded=0;whiteSpace=wrap;html=1;" vertex="1" parent="CKGqQik_71pQvi-KBsD8-1">
          <mxGeometry x="55" y="60" width="10" height="80" as="geometry" />
        </mxCell>
        <mxCell id="CKGqQik_71pQvi-KBsD8-34" value="" style="rounded=0;whiteSpace=wrap;html=1;" vertex="1" parent="CKGqQik_71pQvi-KBsD8-1">
          <mxGeometry x="55" y="210" width="10" height="130" as="geometry" />
        </mxCell>
        <mxCell id="CKGqQik_71pQvi-KBsD8-71" value="" style="rounded=0;whiteSpace=wrap;html=1;" vertex="1" parent="CKGqQik_71pQvi-KBsD8-1">
          <mxGeometry x="55" y="530" width="10" height="110" as="geometry" />
        </mxCell>
        <mxCell id="CKGqQik_71pQvi-KBsD8-3" value="Consumer1" style="shape=umlLifeline;perimeter=lifelinePerimeter;whiteSpace=wrap;html=1;container=1;collapsible=0;recursiveResize=0;outlineConnect=0;" vertex="1" parent="1">
          <mxGeometry x="40" y="40" width="120" height="680" as="geometry" />
        </mxCell>
        <mxCell id="CKGqQik_71pQvi-KBsD8-9" value="" style="rounded=0;whiteSpace=wrap;html=1;" vertex="1" parent="CKGqQik_71pQvi-KBsD8-3">
          <mxGeometry x="55" y="150" width="10" height="40" as="geometry" />
        </mxCell>
        <mxCell id="CKGqQik_71pQvi-KBsD8-39" value="" style="rounded=0;whiteSpace=wrap;html=1;" vertex="1" parent="CKGqQik_71pQvi-KBsD8-3">
          <mxGeometry x="55" y="210" width="10" height="130" as="geometry" />
        </mxCell>
        <mxCell id="CKGqQik_71pQvi-KBsD8-55" value="" style="rounded=0;whiteSpace=wrap;html=1;" vertex="1" parent="CKGqQik_71pQvi-KBsD8-3">
          <mxGeometry x="55" y="360" width="10" height="130" as="geometry" />
        </mxCell>
        <mxCell id="CKGqQik_71pQvi-KBsD8-70" value="" style="rounded=0;whiteSpace=wrap;html=1;" vertex="1" parent="CKGqQik_71pQvi-KBsD8-3">
          <mxGeometry x="55" y="520" width="10" height="130" as="geometry" />
        </mxCell>
        <mxCell id="CKGqQik_71pQvi-KBsD8-5" value="&lt;span style=&quot;font-weight: 400&quot;&gt;GroupCoordinator&lt;/span&gt;" style="shape=umlLifeline;perimeter=lifelinePerimeter;whiteSpace=wrap;html=1;container=1;collapsible=0;recursiveResize=0;outlineConnect=0;fontStyle=1" vertex="1" parent="1">
          <mxGeometry x="440" y="40" width="120" height="680" as="geometry" />
        </mxCell>
        <mxCell id="CKGqQik_71pQvi-KBsD8-25" value="" style="rounded=0;whiteSpace=wrap;html=1;" vertex="1" parent="CKGqQik_71pQvi-KBsD8-5">
          <mxGeometry x="55" y="220" width="10" height="110" as="geometry" />
        </mxCell>
        <mxCell id="CKGqQik_71pQvi-KBsD8-52" value="" style="rounded=0;whiteSpace=wrap;html=1;" vertex="1" parent="CKGqQik_71pQvi-KBsD8-5">
          <mxGeometry x="55" y="370" width="10" height="110" as="geometry" />
        </mxCell>
        <mxCell id="CKGqQik_71pQvi-KBsD8-72" value="" style="rounded=0;whiteSpace=wrap;html=1;" vertex="1" parent="CKGqQik_71pQvi-KBsD8-5">
          <mxGeometry x="55" y="540" width="10" height="90" as="geometry" />
        </mxCell>
        <mxCell id="CKGqQik_71pQvi-KBsD8-7" value="Broker2" style="shape=umlLifeline;perimeter=lifelinePerimeter;whiteSpace=wrap;html=1;container=1;collapsible=0;recursiveResize=0;outlineConnect=0;" vertex="1" parent="1">
          <mxGeometry x="640" y="40" width="120" height="680" as="geometry" />
        </mxCell>
        <mxCell id="CKGqQik_71pQvi-KBsD8-11" value="" style="rounded=0;whiteSpace=wrap;html=1;" vertex="1" parent="CKGqQik_71pQvi-KBsD8-7">
          <mxGeometry x="55" y="70" width="10" height="60" as="geometry" />
        </mxCell>
        <mxCell id="CKGqQik_71pQvi-KBsD8-28" value="" style="rounded=0;whiteSpace=wrap;html=1;" vertex="1" parent="CKGqQik_71pQvi-KBsD8-7">
          <mxGeometry x="55" y="150" width="10" height="40" as="geometry" />
        </mxCell>
        <mxCell id="CKGqQik_71pQvi-KBsD8-13" value="FindCoordinato(groupID)" style="text;html=1;strokeColor=none;fillColor=none;align=left;verticalAlign=middle;whiteSpace=wrap;rounded=0;" vertex="1" parent="1">
          <mxGeometry x="310" y="100" width="150" height="20" as="geometry" />
        </mxCell>
        <mxCell id="CKGqQik_71pQvi-KBsD8-15" value="获取分区号：hc(groupID) % CO.size" style="text;html=1;strokeColor=none;fillColor=none;align=left;verticalAlign=middle;whiteSpace=wrap;rounded=0;" vertex="1" parent="1">
          <mxGeometry x="710" y="120" width="210" height="20" as="geometry" />
        </mxCell>
        <mxCell id="CKGqQik_71pQvi-KBsD8-16" value="查找对应CO主题对应分区的leader" style="text;html=1;strokeColor=none;fillColor=none;align=left;verticalAlign=middle;whiteSpace=wrap;rounded=0;" vertex="1" parent="1">
          <mxGeometry x="710" y="150" width="210" height="20" as="geometry" />
        </mxCell>
        <mxCell id="CKGqQik_71pQvi-KBsD8-19" value="" style="edgeStyle=orthogonalEdgeStyle;rounded=0;orthogonalLoop=1;jettySize=auto;html=1;entryX=0.5;entryY=0.167;entryDx=0;entryDy=0;entryPerimeter=0;" edge="1" parent="1" source="CKGqQik_71pQvi-KBsD8-10" target="CKGqQik_71pQvi-KBsD8-11">
          <mxGeometry relative="1" as="geometry">
            <Array as="points">
              <mxPoint x="690" y="120" />
              <mxPoint x="690" y="120" />
            </Array>
          </mxGeometry>
        </mxCell>
        <mxCell id="CKGqQik_71pQvi-KBsD8-23" value="" style="edgeStyle=orthogonalEdgeStyle;rounded=0;orthogonalLoop=1;jettySize=auto;html=1;entryX=1;entryY=0.75;entryDx=0;entryDy=0;" edge="1" parent="1" source="CKGqQik_71pQvi-KBsD8-11" target="CKGqQik_71pQvi-KBsD8-10">
          <mxGeometry relative="1" as="geometry">
            <mxPoint x="615" y="160" as="targetPoint" />
            <Array as="points">
              <mxPoint x="570" y="160" />
              <mxPoint x="570" y="160" />
            </Array>
          </mxGeometry>
        </mxCell>
        <mxCell id="CKGqQik_71pQvi-KBsD8-24" value="leaderBroker.host-port" style="text;html=1;strokeColor=none;fillColor=none;align=left;verticalAlign=middle;whiteSpace=wrap;rounded=0;" vertex="1" parent="1">
          <mxGeometry x="310" y="140" width="150" height="20" as="geometry" />
        </mxCell>
        <mxCell id="CKGqQik_71pQvi-KBsD8-30" value="" style="edgeStyle=orthogonalEdgeStyle;rounded=0;orthogonalLoop=1;jettySize=auto;html=1;exitX=1;exitY=0.25;exitDx=0;exitDy=0;entryX=0;entryY=0.25;entryDx=0;entryDy=0;" edge="1" parent="1" source="CKGqQik_71pQvi-KBsD8-9" target="CKGqQik_71pQvi-KBsD8-28">
          <mxGeometry relative="1" as="geometry">
            <mxPoint x="185" y="210" as="targetPoint" />
          </mxGeometry>
        </mxCell>
        <mxCell id="CKGqQik_71pQvi-KBsD8-32" value="" style="edgeStyle=orthogonalEdgeStyle;rounded=0;orthogonalLoop=1;jettySize=auto;html=1;exitX=0;exitY=0.75;exitDx=0;exitDy=0;entryX=1;entryY=0.75;entryDx=0;entryDy=0;" edge="1" parent="1" source="CKGqQik_71pQvi-KBsD8-28" target="CKGqQik_71pQvi-KBsD8-9">
          <mxGeometry relative="1" as="geometry">
            <mxPoint x="615" y="210" as="targetPoint" />
          </mxGeometry>
        </mxCell>
        <mxCell id="CKGqQik_71pQvi-KBsD8-33" value="FindCoordinato(groupID)" style="text;html=1;strokeColor=none;fillColor=none;align=left;verticalAlign=middle;whiteSpace=wrap;rounded=0;" vertex="1" parent="1">
          <mxGeometry x="120" y="180" width="150" height="20" as="geometry" />
        </mxCell>
        <mxCell id="CKGqQik_71pQvi-KBsD8-36" value="" style="edgeStyle=orthogonalEdgeStyle;rounded=0;orthogonalLoop=1;jettySize=auto;html=1;entryX=0.1;entryY=0.073;entryDx=0;entryDy=0;entryPerimeter=0;exitX=1;exitY=0.5;exitDx=0;exitDy=0;" edge="1" parent="1" source="CKGqQik_71pQvi-KBsD8-42" target="CKGqQik_71pQvi-KBsD8-25">
          <mxGeometry relative="1" as="geometry">
            <mxPoint x="310" y="268" as="sourcePoint" />
            <mxPoint x="490" y="270" as="targetPoint" />
            <Array as="points">
              <mxPoint x="300" y="268" />
            </Array>
          </mxGeometry>
        </mxCell>
        <mxCell id="CKGqQik_71pQvi-KBsD8-38" value="JoinGroup(groupID,protocols)" style="text;html=1;strokeColor=none;fillColor=none;align=left;verticalAlign=middle;whiteSpace=wrap;rounded=0;" vertex="1" parent="1">
          <mxGeometry x="310" y="240" width="190" height="20" as="geometry" />
        </mxCell>
        <mxCell id="CKGqQik_71pQvi-KBsD8-41" value="" style="edgeStyle=orthogonalEdgeStyle;rounded=0;orthogonalLoop=1;jettySize=auto;html=1;exitX=1;exitY=0.25;exitDx=0;exitDy=0;entryX=-0.2;entryY=0.191;entryDx=0;entryDy=0;entryPerimeter=0;" edge="1" parent="1" source="CKGqQik_71pQvi-KBsD8-39" target="CKGqQik_71pQvi-KBsD8-25">
          <mxGeometry relative="1" as="geometry">
            <mxPoint x="185" y="305" as="targetPoint" />
            <Array as="points">
              <mxPoint x="105" y="281" />
            </Array>
          </mxGeometry>
        </mxCell>
        <mxCell id="CKGqQik_71pQvi-KBsD8-42" value="JoinGroup(groupID,protocols)" style="text;html=1;strokeColor=none;fillColor=none;align=left;verticalAlign=middle;whiteSpace=wrap;rounded=0;" vertex="1" parent="1">
          <mxGeometry x="110" y="260" width="190" height="20" as="geometry" />
        </mxCell>
        <mxCell id="CKGqQik_71pQvi-KBsD8-43" value="生成memberID" style="text;html=1;strokeColor=none;fillColor=none;align=left;verticalAlign=middle;whiteSpace=wrap;rounded=0;" vertex="1" parent="1">
          <mxGeometry x="510" y="290" width="90" height="20" as="geometry" />
        </mxCell>
        <mxCell id="CKGqQik_71pQvi-KBsD8-44" value="选举消费组LeaderID" style="text;html=1;strokeColor=none;fillColor=none;align=left;verticalAlign=middle;whiteSpace=wrap;rounded=0;" vertex="1" parent="1">
          <mxGeometry x="510" y="310" width="120" height="20" as="geometry" />
        </mxCell>
        <mxCell id="CKGqQik_71pQvi-KBsD8-45" value="选举分区分配策略" style="text;html=1;strokeColor=none;fillColor=none;align=left;verticalAlign=middle;whiteSpace=wrap;rounded=0;" vertex="1" parent="1">
          <mxGeometry x="510" y="330" width="120" height="20" as="geometry" />
        </mxCell>
        <mxCell id="CKGqQik_71pQvi-KBsD8-47" value="" style="edgeStyle=orthogonalEdgeStyle;rounded=0;orthogonalLoop=1;jettySize=auto;html=1;exitX=0.1;exitY=0.864;exitDx=0;exitDy=0;exitPerimeter=0;" edge="1" parent="1" source="CKGqQik_71pQvi-KBsD8-25" target="CKGqQik_71pQvi-KBsD8-1">
          <mxGeometry relative="1" as="geometry">
            <mxPoint x="415" y="315" as="targetPoint" />
            <Array as="points">
              <mxPoint x="380" y="355" />
              <mxPoint x="380" y="355" />
            </Array>
          </mxGeometry>
        </mxCell>
        <mxCell id="CKGqQik_71pQvi-KBsD8-49" value="" style="edgeStyle=orthogonalEdgeStyle;rounded=0;orthogonalLoop=1;jettySize=auto;html=1;exitX=-0.2;exitY=0.936;exitDx=0;exitDy=0;exitPerimeter=0;" edge="1" parent="1" source="CKGqQik_71pQvi-KBsD8-25" target="CKGqQik_71pQvi-KBsD8-3">
          <mxGeometry relative="1" as="geometry">
            <mxPoint x="415" y="315" as="targetPoint" />
            <Array as="points">
              <mxPoint x="180" y="363" />
              <mxPoint x="180" y="363" />
            </Array>
          </mxGeometry>
        </mxCell>
        <mxCell id="CKGqQik_71pQvi-KBsD8-50" value="memberID,leaderID,members" style="text;html=1;strokeColor=none;fillColor=none;align=left;verticalAlign=middle;whiteSpace=wrap;rounded=0;" vertex="1" parent="1">
          <mxGeometry x="310" y="330" width="150" height="20" as="geometry" />
        </mxCell>
        <mxCell id="CKGqQik_71pQvi-KBsD8-51" value="memberID,leaderID" style="text;html=1;strokeColor=none;fillColor=none;align=left;verticalAlign=middle;whiteSpace=wrap;rounded=0;" vertex="1" parent="1">
          <mxGeometry x="110" y="340" width="150" height="20" as="geometry" />
        </mxCell>
        <mxCell id="CKGqQik_71pQvi-KBsD8-60" value="" style="edgeStyle=orthogonalEdgeStyle;rounded=0;orthogonalLoop=1;jettySize=auto;html=1;exitX=0.9;exitY=0.338;exitDx=0;exitDy=0;exitPerimeter=0;entryX=0.1;entryY=0.318;entryDx=0;entryDy=0;entryPerimeter=0;" edge="1" parent="1" source="CKGqQik_71pQvi-KBsD8-54" target="CKGqQik_71pQvi-KBsD8-52">
          <mxGeometry relative="1" as="geometry">
            <mxPoint x="385" y="465" as="targetPoint" />
            <Array as="points">
              <mxPoint x="304" y="445" />
            </Array>
          </mxGeometry>
        </mxCell>
        <mxCell id="CKGqQik_71pQvi-KBsD8-54" value="" style="rounded=0;whiteSpace=wrap;html=1;" vertex="1" parent="1">
          <mxGeometry x="295" y="400" width="10" height="130" as="geometry" />
        </mxCell>
        <mxCell id="CKGqQik_71pQvi-KBsD8-57" value="" style="edgeStyle=orthogonalEdgeStyle;rounded=0;orthogonalLoop=1;jettySize=auto;html=1;exitX=1.2;exitY=0.115;exitDx=0;exitDy=0;exitPerimeter=0;entryX=0;entryY=0;entryDx=0;entryDy=0;" edge="1" parent="1" source="CKGqQik_71pQvi-KBsD8-55" target="CKGqQik_71pQvi-KBsD8-52">
          <mxGeometry relative="1" as="geometry">
            <mxPoint x="430" y="420" as="targetPoint" />
            <Array as="points">
              <mxPoint x="107" y="410" />
            </Array>
          </mxGeometry>
        </mxCell>
        <mxCell id="CKGqQik_71pQvi-KBsD8-58" value="SyncGroup(groupID)" style="text;html=1;strokeColor=none;fillColor=none;align=left;verticalAlign=middle;whiteSpace=wrap;rounded=0;" vertex="1" parent="1">
          <mxGeometry x="110" y="390" width="120" height="20" as="geometry" />
        </mxCell>
        <mxCell id="CKGqQik_71pQvi-KBsD8-62" value="SyncGroup(groupID,assignment)" style="text;html=1;strokeColor=none;fillColor=none;align=left;verticalAlign=middle;whiteSpace=wrap;rounded=0;" vertex="1" parent="1">
          <mxGeometry x="310" y="420" width="160" height="20" as="geometry" />
        </mxCell>
        <mxCell id="CKGqQik_71pQvi-KBsD8-63" value="写入CO主题" style="text;html=1;strokeColor=none;fillColor=none;align=left;verticalAlign=middle;whiteSpace=wrap;rounded=0;" vertex="1" parent="1">
          <mxGeometry x="510" y="460" width="90" height="20" as="geometry" />
        </mxCell>
        <mxCell id="CKGqQik_71pQvi-KBsD8-64" value="" style="edgeStyle=orthogonalEdgeStyle;rounded=0;orthogonalLoop=1;jettySize=auto;html=1;entryX=1;entryY=0.75;entryDx=0;entryDy=0;" edge="1" parent="1" source="CKGqQik_71pQvi-KBsD8-52" target="CKGqQik_71pQvi-KBsD8-54">
          <mxGeometry relative="1" as="geometry">
            <Array as="points">
              <mxPoint x="400" y="498" />
            </Array>
          </mxGeometry>
        </mxCell>
        <mxCell id="CKGqQik_71pQvi-KBsD8-65" value="" style="edgeStyle=orthogonalEdgeStyle;rounded=0;orthogonalLoop=1;jettySize=auto;html=1;exitX=-0.3;exitY=0.909;exitDx=0;exitDy=0;exitPerimeter=0;entryX=1.1;entryY=0.854;entryDx=0;entryDy=0;entryPerimeter=0;" edge="1" parent="1">
          <mxGeometry relative="1" as="geometry">
            <mxPoint x="492" y="508.99" as="sourcePoint" />
            <mxPoint x="106" y="510.02" as="targetPoint" />
            <Array as="points">
              <mxPoint x="300" y="509" />
              <mxPoint x="300" y="510" />
            </Array>
          </mxGeometry>
        </mxCell>
        <mxCell id="CKGqQik_71pQvi-KBsD8-68" value="memberAssignment" style="text;html=1;strokeColor=none;fillColor=none;align=left;verticalAlign=middle;whiteSpace=wrap;rounded=0;" vertex="1" parent="1">
          <mxGeometry x="310" y="470" width="120" height="20" as="geometry" />
        </mxCell>
        <mxCell id="CKGqQik_71pQvi-KBsD8-69" value="memberAssignment" style="text;html=1;strokeColor=none;fillColor=none;align=left;verticalAlign=middle;whiteSpace=wrap;rounded=0;" vertex="1" parent="1">
          <mxGeometry x="110" y="490" width="120" height="20" as="geometry" />
        </mxCell>
        <mxCell id="CKGqQik_71pQvi-KBsD8-74" value="" style="edgeStyle=orthogonalEdgeStyle;rounded=0;orthogonalLoop=1;jettySize=auto;html=1;exitX=1;exitY=0.25;exitDx=0;exitDy=0;entryX=0.5;entryY=0.139;entryDx=0;entryDy=0;entryPerimeter=0;" edge="1" parent="1" source="CKGqQik_71pQvi-KBsD8-70" target="CKGqQik_71pQvi-KBsD8-72">
          <mxGeometry relative="1" as="geometry">
            <mxPoint x="185" y="625" as="targetPoint" />
            <Array as="points" />
          </mxGeometry>
        </mxCell>
        <mxCell id="CKGqQik_71pQvi-KBsD8-78" value="" style="edgeStyle=orthogonalEdgeStyle;rounded=0;orthogonalLoop=1;jettySize=auto;html=1;entryX=0;entryY=0.5;entryDx=0;entryDy=0;" edge="1" parent="1" source="CKGqQik_71pQvi-KBsD8-71" target="CKGqQik_71pQvi-KBsD8-72">
          <mxGeometry relative="1" as="geometry">
            <mxPoint x="385" y="625" as="targetPoint" />
          </mxGeometry>
        </mxCell>
        <mxCell id="CKGqQik_71pQvi-KBsD8-81" value="" style="edgeStyle=orthogonalEdgeStyle;rounded=0;orthogonalLoop=1;jettySize=auto;html=1;entryX=1;entryY=0.75;entryDx=0;entryDy=0;exitX=0.5;exitY=0.806;exitDx=0;exitDy=0;exitPerimeter=0;" edge="1" parent="1" source="CKGqQik_71pQvi-KBsD8-72" target="CKGqQik_71pQvi-KBsD8-71">
          <mxGeometry relative="1" as="geometry">
            <mxPoint x="490" y="653" as="sourcePoint" />
            <mxPoint x="505" y="635" as="targetPoint" />
            <Array as="points" />
          </mxGeometry>
        </mxCell>
        <mxCell id="CKGqQik_71pQvi-KBsD8-82" value="" style="edgeStyle=orthogonalEdgeStyle;rounded=0;orthogonalLoop=1;jettySize=auto;html=1;" edge="1" parent="1">
          <mxGeometry relative="1" as="geometry">
            <mxPoint x="500" y="663" as="sourcePoint" />
            <mxPoint x="104" y="663" as="targetPoint" />
            <Array as="points">
              <mxPoint x="104" y="663" />
            </Array>
          </mxGeometry>
        </mxCell>
        <mxCell id="CKGqQik_71pQvi-KBsD8-83" value="Heartbeat" style="text;html=1;strokeColor=none;fillColor=none;align=left;verticalAlign=middle;whiteSpace=wrap;rounded=0;" vertex="1" parent="1">
          <mxGeometry x="110" y="565" width="60" height="20" as="geometry" />
        </mxCell>
        <mxCell id="CKGqQik_71pQvi-KBsD8-84" value="Heartbeat" style="text;html=1;strokeColor=none;fillColor=none;align=left;verticalAlign=middle;whiteSpace=wrap;rounded=0;" vertex="1" parent="1">
          <mxGeometry x="310" y="600" width="60" height="20" as="geometry" />
        </mxCell>
      </root>
    </mxGraphModel>
  </diagram>
</mxfile>
